<?xml version="1.0" encoding="utf-8"?>
<!-- Generator: Adobe Illustrator 25.4.1, SVG Export Plug-In . SVG Version: 6.00 Build 0)  -->
<svg version="1.1" id="Capa_1" xmlns="http://www.w3.org/2000/svg" xmlns:xlink="http://www.w3.org/1999/xlink" x="0px" y="0px"
	 viewBox="0 0 1024 1024" style="enable-background:new 0 0 1024 1024;" xml:space="preserve">
<style type="text/css">
	.st0{fill:#F7EA25;}
</style>
<path class="st0" d="M912,225c0-62.4-50.6-113-113-113H225c-62.4,0-113,50.6-113,113V799c0,62.4,50.6,113,113,113H799
	c62.4,0,113-50.6,113-113V225z M774.8,460.9c-51.6,0.6-99.7-15-141.9-43.9v202.9c0,90.2-61.7,167.6-149,187.8
	c-119.1,27.2-219.9-59-232.6-161.8C238,543,303.6,452.8,404.1,432.6c19.7-4,49.2-4,64.5-0.6v108.7c-4.7-1.2-9.1-2.3-13.7-2.9
	c-39.3-6.9-77.4,12.7-93,48.5c-15.6,35.8-5.2,77.5,26.6,101.7c26.6,20.8,56.1,23.7,86.1,9.8c30.1-13.3,46.2-37.6,49.7-70.5
	c0.6-4.6,0.5-9.8,0.5-15V222.2c0-11,0.1-10.5,11.1-10.5h86.1c6.4,0,8.7,0.9,9.2,8.4c4.6,67,55.5,124.1,120.8,132.8
	c6.9,1.2,14.4,1.6,22.6,2.2V460.9z"/>
</svg>
